<?xml version="1.0" encoding="UTF-8"?>
<svg width="24px" height="24px" viewBox="0 0 24 24" version="1.1" xmlns="http://www.w3.org/2000/svg" xmlns:xlink="http://www.w3.org/1999/xlink">
    <!-- Generator: Sketch 55.2 (78181) - https://sketchapp.com -->
    <title>arrow right</title>
    <desc>Created with Sketch.</desc>
    <g id="arrow-right" stroke="none" stroke-width="1" fill="none" fill-rule="evenodd">
        <g id="24/Arrow/Right" transform="translate(5.000000, 5.000000)" fill="#666666">
            <path d="M13.0202498,6.99 C12.6292498,6.599 11.9972498,6.599 11.6062498,6.99 L8.00524981,10.59 L8.00524981,1 C8.00524981,0.448 7.55824981,0 7.00524981,0 C6.45324981,0 6.00524981,0.448 6.00524981,1 L6.00524981,10.589 L2.40724981,6.99 C2.01624981,6.599 1.38324981,6.599 0.993249809,6.99 C0.602249809,7.38 0.602249809,8.013 0.993249809,8.404 L6.29624981,13.707 C6.34424981,13.756 6.40524981,13.78 6.46024981,13.817 C6.51424981,13.852 6.56024981,13.897 6.62024981,13.922 C6.74324981,13.973 6.87324981,14 7.00424981,14 C7.00424981,14 7.00524981,14 7.00524981,14 C7.00624981,14 7.00724981,14 7.00824981,14 C7.13924981,14 7.27024981,13.973 7.39424981,13.922 C7.41124981,13.914 7.42324981,13.899 7.44024981,13.891 C7.53924981,13.844 7.63524981,13.789 7.71724981,13.707 L13.0202498,8.404 C13.4112498,8.013 13.4112498,7.38 13.0202498,6.99" id="Fill-1" transform="translate(7.006750, 7.000000) scale(-1, 1) rotate(90.000000) translate(-7.006750, -7.000000) "></path>
        </g>
    </g>
</svg>