<?xml version="1.0" encoding="UTF-8"?>
<svg width="24px" height="24px" viewBox="0 0 24 24" version="1.1" xmlns="http://www.w3.org/2000/svg" xmlns:xlink="http://www.w3.org/1999/xlink">
    <!-- Generator: Sketch 55.2 (78181) - https://sketchapp.com -->
    <title>search</title>
    <desc>Created with Sketch.</desc>
    <g id="search" stroke="none" stroke-width="1" fill="none" fill-rule="evenodd">
        <g id="Search-Glyph-Copy" transform="translate(4.000000, 4.000000)" fill="#666666">
            <path d="M15.7063939,14.3703494 L11.3258225,9.98806368 C12.1110461,8.9170964 12.5316874,7.62232255 12.5258225,6.29434939 C12.5108399,2.82789882 9.70710473,0.020085074 6.2406796,6.36775157e-05 C4.58179978,-0.00744179766 2.98881832,0.648814042 1.81660644,1.82263596 C0.644394559,2.99645787 -0.00967420411,4.59033858 0.00010817168,6.24920653 C0.0150906982,9.71597269 2.81908174,12.5240423 6.28582246,12.5440637 C7.61920554,12.5498427 8.91870988,12.1242916 9.99039389,11.3309208 L9.99496531,11.3274922 L14.3715367,15.7063494 C14.608164,15.9545934 14.9607548,16.0550767 15.2926966,15.9688668 C15.6246385,15.8826569 15.8837737,15.6232998 15.9696995,15.2912843 C16.0556253,14.9592688 15.9548403,14.6067641 15.7063939,14.3703494 L15.7063939,14.3703494 Z M6.28125103,11.2892065 C3.50800996,11.2732534 1.2648536,9.0270382 1.2526796,6.25377796 C1.24519456,4.92685547 1.76849262,3.65200699 2.70608557,2.71301882 C3.64367851,1.77403065 4.91774745,1.24883748 6.2446796,1.25434939 C9.01792067,1.27030252 11.261077,3.51651773 11.273251,6.28977796 C11.2807361,7.61670045 10.757438,8.89154894 9.81984506,9.83053711 C8.88225212,10.7695253 7.60818318,11.2947184 6.28125103,11.2892065 Z" id="Search"></path>
        </g>
    </g>
</svg>